<svg id="图层_1" data-name="图层 1" xmlns="http://www.w3.org/2000/svg" viewBox="0 0 1999 1000">
    <defs>
        <style>
            .cls-1 {
                fill: #fff;
            }

            .cls-2 {
                fill: #00a43b;
            }
        </style>
    </defs>
    <title>浪花涂装 - 来自 buspeida.top 侵删</title>
    <rect class="cls-1" width="1999" height="1000" />
    <path class="cls-2"
        d="M1998.55,0c-7.64.44-15.29.64-22.93.48.47,4.72.5,11.28.46,20.46-.47,129.5-20.79,249.9-55,363.78-28.32,94.2-66.76,173.2-116.68,234.55-3.16,3.88-7.49,4.83-11.28,7.15-.83-6.84-2.5-13.72-2.37-20.5,1-48-11.51-84.76-33-111.08-10-12.3-7.36-20.42-3.29-34.69,8.69-30.43,18.4-60.76,23.81-93.11,11.63-69.58-3.72-109.63-38.76-142.06a43.83,43.83,0,0,0-7.94-5.77c-21.54-12.45-35.72-30.07-41.2-76.11-5.87-49.33-44-72.73-78.72-58.37-3.58,1.48-6.39,1.7-8.65.93A16.31,16.31,0,0,1,1601.3,88c-.09.1-.17.21-.26.3a11.67,11.67,0,0,1-2,1.72l-.37.25a9.7,9.7,0,0,1-2.24,1.1l-.36.1a9.74,9.74,0,0,1-2.67.4,9.89,9.89,0,0,1-2.2-.28l-.52-.14a9.51,9.51,0,0,1-1.93-.78l0,0a10.47,10.47,0,0,1-1.83-1.32l-.31-.27a14.52,14.52,0,0,1-1.58-1.72h0c-2.58,1.61-5.68-.23-8.77-6.3-21.69-42.55-50-45.9-79.47-44.77-22.45.85-40.36,18.24-52.61,49.44-7.64,19.45-16.18,23.17-28.19,20.74-18.25-3.69-35.25,3.43-50.61,21.9-20.54,24.68-20.47,72.61,1.3,93.86,20.54,20.06,67.42,23.07,87.61-25.09,10.06-24,16.69-24.43,29.44-4.34a91.83,91.83,0,0,1,11.32,25.91c13.11,51.19,14.9,104,5.5,157.75-3.8,21.71-9.45,42.72-11.7,64.84-1.22,12,.45,31.21,5.11,37.61,13.4,18.4,8.7,32.79-1.82,56.42-2.4-14-4.87-22.39-5.13-31-2-67.56-29.86-119.9-68.43-122.48-15-1-30.87,4.53-45.21,12.94-12,7-21,5.8-31-6.3-23.09-28-58-36.22-87,4.27-7.15,10-17.22,13.72-26.1,19.64-13,8.66-26.62,14.94-39.06,25.53-10.73,9.13-17.93,24.85-17.79,48.27.16,27.61,16.35,59.42,33.67,63.6,24.81,6,45.49,0,49.76-41.15.84-8.09,8.77-15,14.22-19.61,1-.87,5.79,11.76,8.83,18.17,2.77,5.84,4.91,14.7,8.43,17,11.74,7.54,13.25,22.77,8.9,38.52-14.23,51.56-33.36,98.34-61,129-25.34,28.18-54.07,46.85-80.67,71.8-16.59,15.56-32.84,12.79-50.29,7.94-56.4-15.69-112.47-14.18-167.54,15.7-4.48,2.44-11,5.64-12.32,11.48-5.07,21.61-15.43,21.48-25.78,24.08a207.27,207.27,0,0,0-30.95,10.31c-15,6.4-28.4,4.62-39.35-17.19-2.32-4.64-8.23-11.06-8.64-10.3-9.3,17.23-20.26,6.74-30.6,6.95-13.86.29-27.7,1.81-41.55,3.12a123.6,123.6,0,0,0-20,3.15c-11.64,3.07-23.3,10.6-34.78,9.68-24.47-2-48.86-7.53-73.2-12.84-11.94-2.6-23.7-7.92-35.54-12,.24-2.48.49-5,.73-7.43l127.85,18,.72-8.19c-3.89-1.52-7.75-3.91-11.69-4.43-20.38-2.66-40.07-5.63-60.49-15.91a298.34,298.34,0,0,0-166-30.91c-40.72,4-82.38,10.67-121.27,30.33-33.48,16.92-66.23,27.67-100.61,27.68q-125.94,0-251.9-.07.15,93.66.28,187.31L2000,991.11Q1999.28,495.56,1998.55,0ZM546.23,798.42c-26.49,1.81-53.07,1.37-79.48,5C447.19,806,427.87,814,408.38,818.89c-5.26,1.33-10.72.25-17.08.28,10.94-40.63,132.07-48.06,168.69-25.68C555.41,795.2,550.85,798.1,546.23,798.42Zm583.17,11-183.13.81q0-3.59,0-7.19c61.1-16.14,122.11-7.11,183.13-.17Zm250.68-219.8,4.31,2.54c0,6.18,1.21,13.32-.15,18.38-19,70.93-53.79,111.55-92.14,145-2.55,2.23-6.28.32-9.47.33C1322,710.81,1356.93,661.4,1380.08,589.65Zm-72,69,37.41-130.74C1350.71,565.23,1326.37,646.33,1308.06,658.68Zm-143.31,126c19.2-30.21,42.63-24.07,61.37-36.11-7.87,10.14-15.6,20.64-23.65,30.33C1191.76,791.76,1180.35,796.94,1164.75,784.63Zm132.2,18.8c-6,4-12.29,9.63-18.41,9.35a281.92,281.92,0,0,1-50.33-7c-6.16-1.42-11.89-8.55-17.82-13.07.39-2.71.77-5.42,1.16-8.13l60.18-22.31q.55,2.47,1.1,4.95l-14.67,16.24c4,3.59,6.25,7.16,8.58,7.35,3.76.32,7.6-2.59,11.37-2.33a84.5,84.5,0,0,1,19,4.06C1297.48,792.61,1297.74,802.9,1297,803.43Zm27.74,10.91a20.83,20.83,0,0,1-4.22-11.63c.06-3.44,3.19-9.65,5-9.63,15.74.15,31.49,1.17,47.22,2.62,1.95.18,3.79,4.34,6.75,8C1368.05,819.59,1334.12,825.41,1324.69,814.34Zm25-37.56c-6.35,1-12.84-.79-19.27-1.28l-.63-7.56c10.93-7.63,21.75-15.76,32.8-22.8,33.22-21.18,59.65-56.51,78.26-109.81,7.16-20.5,9.34-40,2.94-61.76-6-20.26-16.71-25.26-28-24.75-15.79.71-27.83.64-37.65-30.74-9.08-29-30.1-33.38-49.35-27.46-15.28,4.7-29.12,9.68-41.78-16.45-10.35-21.4-33.87-6.74-41,21.95-8.76,35-36.81,46.26-50.28,20.17s-5.26-65.94,15.41-73.25c5.62-2,11.51-2.28,17.28-2.3,16.23,0,30.39-5.15,43.51-26,18.3-29.1,43.4-28.23,60,1,11,19.39,21.66,18.1,34.93,13.78a323.35,323.35,0,0,1,55.69-12.5c31.74-4.43,51.4,40.09,49.23,97.11-1.3,34.14-2,34.4,17,40.26,10,3.08,21.31,2.82,25,23.31,2.15,11.8,3.7,27,1.29,37.76-9.88,44.16-29.82,72.95-52.25,97.64C1428.12,751.27,1390.15,770.67,1349.72,776.78Zm132.37-39.46c-1.77-8.93-2.16-10.28-2-10.42,6.8-8.72,13.64-17.34,20.48-26l5.22,13.18Zm31.41,26,71.75-53.82,2.37,10.25-71.83,54Q1514.65,768.5,1513.5,763.28Zm34.77-161.53c0,3.82.4,6,0,7-4.51,10.64-9.15,21.09-14,32.18C1529,616.67,1533.87,603,1548.27,601.75ZM1576.54,832l-12.64-15.35c6.37-3.36,12.67-7.57,19.18-9.51,1.86-.55,4.36,5.52,6.56,8.56ZM1759.4,648.37c-12.58,39-32.11,64.49-54.18,84.36-28.18,25.36-56.71,49.58-85.37,73.23-3.31,2.74-8.44-1.23-12.73-2.09,1.57-6.28,2.16-15.65,4.88-18.29,9.59-9.29,19.81-16.67,30-24,31.8-23.08,56.72-59.95,72.67-113.47,4.77-16,6.7-34.57,9.94-52-2.51-47.56-17-79.9-38.43-103.24-9.79-10.63-13.15-22-10.3-41.61,2.35-16.15,3.07-33.16,3.77-49.89,1.5-35.77-9-67.89-28.64-74.28-24.85-8.12-36.19-30.09-45.77-71.81a330.51,330.51,0,0,1-6.75-43.25c-2.66-.61-5.22-2.69-7.35-5.7-3.47,13-12.44,6.64-19.81,2.93-11.76,3.36-23.68,5.54-35.22,10.48-8,3.42-12.72.88-16.23-12.35-12.28-46.21-35.27-54.2-60.65-47.5-6.9,1.83-14.24,13.44-18.86,23.94-15.35,34.86-49.44,40.93-67.78,10.35-7.9-13.18-7.78-37.38,2.39-48.18a56.07,56.07,0,0,1,29.21-16.53c10.66-2.18,21.81,3.44,32.54,1.76,5.07-.8,11.76-8.78,14.15-16.76,21.65-72.35,79.57-77.47,111.76-16,5.16,9.83,13.51,14.34,19.91,22.46.77,1,1.61,2.05,2.45,3.15a11.7,11.7,0,0,1,8.36-.93l2.69.69c1.29-7.09,6.23-16.59,9.4-17.06,14.67-2.16,29.67-2.72,44.26.34,15.37,3.22,25.24,23.81,27.87,50.84.24,2.48.31,5,.47,7.54,3.17,49.38,3.51,47.36,31.37,62,26.85,14.12,51.8,35.14,56.57,92.08,3.35,40-2,76.53-15.11,109.48-20.27,51.07-20.39,50.93,3.88,94.49Q1783.26,574.71,1759.4,648.37Zm-153.11,41.52,43.31-61.42C1645.73,656.19,1621.58,693.92,1606.29,689.89Z"
        transform="translate(-1 0)" />
    <path class="cls-2"
        d="M476.88,728.51c-19.59.31-37.71-30.87-38.07-65.54-.39-36.87,17-72.63,35.71-73.61,18.44-1,37.86,35.08,37.85,70.24C512.35,697.66,496.62,728.2,476.88,728.51Zm21.22-66.29c.37-21.4-11.27-45.21-22.21-45.42-11.1-.22-21.69,20-22.08,42.22-.37,20.45,9.52,40.78,20.27,41.67C485.72,701.66,497.76,682.38,498.1,662.22Z"
        transform="translate(-1 0)" />
    <path class="cls-2"
        d="M1176.68,658.6c.31,23.79-12.64,48.56-25.62,49-11,.35-24.76-25.94-25.1-48-.35-22.46,12.23-47.47,24.37-48.46C1163,610.07,1176.35,634.17,1176.68,658.6ZM1150.45,691c6-14.74,12.42-23.8,11.67-30.37-1.16-10.2-7.22-18.7-11.2-27.92-3.91,8.2-10.4,15.89-11,24.76C1139.4,665.74,1145.16,675.22,1150.45,691Z"
        transform="translate(-1 0)" />
    <path class="cls-2"
        d="M1296,240.75c0-26.21,11.62-49.22,24.86-49.08,11.49.13,25.51,26.38,25.08,47-.46,22.21-14.94,46.87-27.5,46.82C1307.63,285.43,1296.06,262.39,1296,240.75Zm23.9-35.82c-5.94,15-12.62,24.45-12.07,32.4.62,8.94,7.75,16.51,12.05,24.67,4-8,10.69-15.56,11.08-24S1325.4,220.19,1319.94,204.93Z"
        transform="translate(-1 0)" />
    <path class="cls-2"
        d="M1485.24,274.87c-.49,20.68-14.74,47-24.71,45.62-9.23-1.28-22.79-28.43-22-44.17,1-21.95,15.2-50.13,24.61-49C1471.66,228.43,1485.63,258.4,1485.24,274.87Zm-12.41,5.48q2.09-6.84,4.19-13.68c-4.78-3.56-9.87-10.69-14.25-9.57-3.65.94-8.13,10.95-9.06,18.18-.6,4.7,4.51,16.4,7.09,16.43C1464.79,291.76,1468.82,284.51,1472.83,280.35Z"
        transform="translate(-1 0)" />
    <path class="cls-2"
        d="M365.64,650.21c-.1-20.61,8.28-38,18.32-38.09,10.64-.07,22.62,22.44,22.3,41.92-.28,17.19-12.22,35.37-23,35C373,688.61,365.74,672.58,365.64,650.21Zm18.29-30.77c-4.76,14.46-9.56,22.62-8.67,27.81,1.47,8.57,6.61,15.24,10.2,22.71,3.39-6.6,9.51-13.26,9.46-19.78C394.86,642.22,389.62,634.38,383.93,619.44Z"
        transform="translate(-1 0)" />
    <path class="cls-2"
        d="M1072.19,691.05c-7.49,11.39-12.65,24.67-16.33,23.53-5.49-1.71-14.52-15.17-13.88-20.77,1.24-10.81,8.2-19.62,12.79-29.25C1059.64,672,1064.52,679.39,1072.19,691.05Z"
        transform="translate(-1 0)" />
    <path class="cls-2"
        d="M1163.16,520.81c-8.56,11.13-14.61,24.11-18.05,22.27-5.3-2.83-10.68-14.93-12.27-24.92-.77-4.86,7.46-20.28,10.74-19.51C1149.31,500,1154.35,510.14,1163.16,520.81Z"
        transform="translate(-1 0)" />
    <path class="cls-2"
        d="M1212.62,585.22c6.22,14.74,12.89,23.69,12.37,31.1-.62,8.78-7.43,16.24-11.56,24.27-4.24-7.44-11.28-14.23-11.91-22.51C1200.91,610.22,1207,600.79,1212.62,585.22Z"
        transform="translate(-1 0)" />
    <path class="cls-1"
        d="M1754.73,524.65c-24.27-43.46-24.15-43.32-3.88-94.27,13.08-32.87,18.46-69.35,15.11-109.22-4.77-56.8-29.72-77.77-56.57-91.85-27.86-14.61-28.2-12.59-31.37-61.86-.16-2.51-.23-5-.47-7.52-2.63-27-12.5-47.5-27.87-50.72-14.59-3-29.59-2.49-44.26-.34-3.17.47-8.11,9.95-9.4,17,8,2,16,4.24,23.79,8.53,8,4.45,11.53,17.17,10.12,31-2.48,24.2-13.31,39.69-26,47.55a7.1,7.1,0,0,1-5.46.95,329.05,329.05,0,0,0,6.75,43.15c9.58,41.61,20.92,63.53,45.77,71.63,19.59,6.38,30.14,38.43,28.64,74.11-.7,16.68-1.42,33.65-3.77,49.76-2.85,19.58.51,30.91,10.3,41.52,21.46,23.28,35.92,55.55,38.43,103-3.24,17.35-5.17,35.88-9.94,51.83-16,53.39-40.87,90.18-72.67,113.2-10.16,7.36-20.38,14.72-30,24-2.72,2.63-3.31,12-4.88,18.25,4.29.86,9.42,4.82,12.73,2.09,28.66-23.6,57.19-47.76,85.37-73.06,22.07-19.82,41.6-45.28,54.18-84.15Q1783.15,575.87,1754.73,524.65Z"
        transform="translate(-1 0)" />
    <path class="cls-1"
        d="M1329.82,768.5c10.93-7.62,21.75-15.72,32.8-22.75,33.22-21.12,59.65-56.37,78.26-109.54,7.16-20.45,9.34-39.88,2.94-61.62-6-20.2-16.71-25.2-28-24.69-15.79.71-27.83.64-37.65-30.66-9.08-28.91-30.1-33.3-49.35-27.4-15.28,4.69-29.12,9.66-41.78-16.41-10.35-21.34-33.87-6.72-41,21.9-8.76,34.92-36.81,46.15-50.28,20.13s-5.26-65.79,15.41-73.09c5.62-2,11.51-2.27,17.28-2.28,16.23,0,30.39-5.15,43.51-26,18.3-29,43.4-28.16,60,1,11,19.35,21.66,18.06,34.93,13.75a324.19,324.19,0,0,1,55.69-12.47c31.74-4.42,51.4,40,49.23,96.87-1.3,34.06-2,34.33,17,40.17,10,3.07,21.31,2.82,25,23.25,2.15,11.78,3.7,26.93,1.29,37.67-9.88,44.06-29.82,72.78-52.25,97.41-34.65,38.05-72.62,57.41-113,63.5-6.35,1-12.84-.78-19.27-1.27Z"
        transform="translate(-1 0)" />
    <path class="cls-1"
        d="M1586.11,195.37a39,39,0,0,1,2.21-20.88l-2.69-.69c-7.79-1.94-12-19.17-10.11-31,1.42-9,5-14.38,9.45-16.68-.84-1.1-1.68-2.16-2.45-3.14-6.4-8.1-14.75-12.6-19.91-22.41-32.19-61.27-90.11-56.16-111.76,16-2.39,8-9.08,15.93-14.15,16.72-10.73,1.68-21.88-3.92-32.54-1.75A56.06,56.06,0,0,0,1375,148.05c-10.17,10.77-10.29,34.91-2.39,48.06,18.34,30.51,52.43,24.46,67.78-10.32,4.62-10.48,12-22.06,18.86-23.88,25.38-6.69,48.37,1.28,60.65,47.38,3.51,13.2,8.25,15.73,16.23,12.32,11.54-4.93,23.46-7.1,35.22-10.45,7.37,3.7,16.34,10,19.81-2.93A31.09,31.09,0,0,1,1586.11,195.37Z"
        transform="translate(-1 0)" />
    <path class="cls-1"
        d="M391.3,819.6C402.24,779.07,523.37,771.66,560,794c-4.58,1.71-9.14,4.61-13.76,4.92-26.49,1.81-53.07,1.37-79.48,5-19.56,2.65-38.88,10.57-58.37,15.48C403.12,820.65,397.66,819.57,391.3,819.6Z"
        transform="translate(-1 0)" />
    <path class="cls-1"
        d="M946.31,803.55c61.1-16.11,122.11-7.1,183.13-.18q0,3.27,0,6.54l-183.13.81Q946.3,807.14,946.31,803.55Z"
        transform="translate(-1 0)" />
    <path class="cls-1"
        d="M1282.63,756.45c39.38-44.94,74.3-94.23,97.45-165.82l4.31,2.54c0,6.16,1.21,13.29-.15,18.34-19,70.75-53.79,111.28-92.14,144.61C1289.55,758.34,1285.82,756.43,1282.63,756.45Z"
        transform="translate(-1 0)" />
    <path class="cls-1"
        d="M1211.55,785.05l60.18-22.25c.37,1.65.74,3.29,1.1,4.94l-14.67,16.2c4,3.59,6.25,7.14,8.58,7.33,3.76.32,7.6-2.58,11.37-2.32a84.47,84.47,0,0,1,19,4c.36.1.62,10.37-.17,10.9-6,4-12.29,9.61-18.41,9.33a282.82,282.82,0,0,1-50.33-7c-6.16-1.41-11.89-8.52-17.82-13C1210.78,790.46,1211.16,787.76,1211.55,785.05Z"
        transform="translate(-1 0)" />
    <path class="cls-1"
        d="M1379.39,804.13c-11.34,15.89-45.27,21.7-54.7,10.66a20.79,20.79,0,0,1-4.22-11.61c.06-3.43,3.19-9.62,5-9.6,15.74.14,31.49,1.17,47.22,2.61C1374.59,796.37,1376.43,800.52,1379.39,804.13Z"
        transform="translate(-1 0)" />
    <path class="cls-1" d="M1345.47,529.07c5.24,37.2-19.1,118.11-37.41,130.43Z" transform="translate(-1 0)" />
    <path class="cls-1"
        d="M1226.12,749.13c-7.87,10.11-15.6,20.58-23.65,30.25-10.71,12.88-22.12,18-37.72,5.77C1184,755,1207.38,761.14,1226.12,749.13Z"
        transform="translate(-1 0)" />
    <path class="cls-1" d="M1513.5,763.85l71.75-53.69,2.37,10.23-71.83,53.85Z" transform="translate(-1 0)" />
    <path class="cls-1" d="M1606.29,690.63l43.31-61.27C1645.73,657,1621.58,694.66,1606.29,690.63Z"
        transform="translate(-1 0)" />
    <path class="cls-1" d="M1482.09,738c-1.77-8.91-2.16-10.25-2-10.4,6.8-8.7,13.64-17.3,20.48-25.91l5.22,13.15Z"
        transform="translate(-1 0)" />
    <path class="cls-1"
        d="M1576.54,832.37c-5.29-6.41-9-10.87-12.64-15.32,6.37-3.35,12.67-7.56,19.18-9.49,1.86-.55,4.36,5.51,6.56,8.54Z"
        transform="translate(-1 0)" />
    <path class="cls-1"
        d="M1548.27,602.7c0,3.82.4,6,0,7-4.51,10.61-9.15,21-14,32.1C1529,617.59,1533.87,604,1548.27,602.7Z"
        transform="translate(-1 0)" />
    <path class="cls-1"
        d="M498.1,662.22c-.34,20.16-12.38,39.44-24,38.47-10.75-.89-20.64-21.22-20.27-41.67.39-22.2,11-42.44,22.08-42.22C486.83,617,498.47,640.82,498.1,662.22Z"
        transform="translate(-1 0)" />
    <path class="cls-1"
        d="M1150.45,691c-5.29-15.82-11-25.3-10.51-33.53.58-8.87,7.07-16.56,11-24.76,4,9.22,10,17.72,11.2,27.92C1162.87,667.24,1156.43,676.3,1150.45,691Z"
        transform="translate(-1 0)" />
    <path class="cls-1"
        d="M1319.94,204.93c5.46,15.26,11.44,24.59,11.06,33s-7.12,16.06-11.08,24c-4.3-8.16-11.43-15.73-12.05-24.67C1307.32,229.38,1314,219.92,1319.94,204.93Z"
        transform="translate(-1 0)" />
    <path class="cls-1"
        d="M1472.83,280.35c-4,4.16-8,11.41-12,11.36-2.58,0-7.69-11.73-7.09-16.43.93-7.23,5.41-17.24,9.06-18.18,4.38-1.12,9.47,6,14.25,9.57Q1474.92,273.51,1472.83,280.35Z"
        transform="translate(-1 0)" />
    <path class="cls-1"
        d="M383.93,619.44c5.69,14.94,10.93,22.78,11,30.74.05,6.52-6.07,13.18-9.46,19.78-3.59-7.47-8.73-14.14-10.2-22.71C374.37,642.06,379.17,633.9,383.93,619.44Z"
        transform="translate(-1 0)" />
    <path class="cls-2"
        d="M1728.88,58.19c14.83-.25,24.06,18,24.32,48.19.16,19.08-15,44.93-26.34,44.91-10.45,0-22.8-25.64-23-47.77C1703.58,80.1,1715.56,58.41,1728.88,58.19Zm14.08,45-14.55-24.14c-3.61,7.78-9.5,15.07-10.09,23.49-.45,6.32,6.1,20.11,9.2,19.82C1732.11,121.93,1736.4,112,1743,103.19Z"
        transform="translate(-1 0)" />
    <path class="cls-2"
        d="M1795.59,171.19c-8.8,11.81-16.57,27.13-19.22,24.79-6.14-5.42-12.77-18.79-13.47-30-.49-7.69,9.4-25.2,13.34-24.1C1782.27,143.53,1787.17,157.49,1795.59,171.19Z"
        transform="translate(-1 0)" />
    <path class="cls-1"
        d="M1743,103.19c-6.56,8.77-10.85,18.74-15.44,19.17-3.1.29-9.65-13.5-9.2-19.82.59-8.42,6.48-15.71,10.09-23.49Z"
        transform="translate(-1 0)" />
    <rect class="cls-2" x="0.66" y="897.39" width="1998.2" height="102.61" />
</svg>